# xmcd CD database file
#
# Track frame offsets:
#	150
#	18530
#	39550
#	59235
#	79047
#	96552
#	116305
#	134320
#	152135
#	172297
#
# Disc length: 2585 seconds
#
# Revision: 2
# Processed by: cddbd v1.5.2PL0 Copyright (c) Steve Scherf et al.
# Submitted via: CDex 1.70beta3
#
DISCID=8c0a170a
DTITLE=TOCT-24137 - 神風怪盗ジャンヌ イメージアルバム
DYEAR=1999
DGENRE=Anime
TTITLE0=桑島法子/神世界・風
TTITLE1=高橋直純/REVOLUTION～まろんのために
TTITLE2=西原久美子/笑顔でいます。
TTITLE3=松井菜桜子/伝えられる いつか
TTITLE4=桑島法子/サンクトウス
TTITLE5=千葉進歩／高橋直純/それぞれの未来
TTITLE6=千葉進歩/Get it! Only you
TTITLE7=桑島法子／松井菜桜子／西原久美子/Cry～ハートが泣いてる [TOCT-24137]
TTITLE8=SHAZNA/PIECE OF LOVE
TTITLE9=Pierrot/ハルカ…
EXTD=YEAR: 1999
EXTT0=
EXTT1=
EXTT2=
EXTT3=
EXTT4=
EXTT5=
EXTT6=
EXTT7=
EXTT8=
EXTT9=
PLAYORDER=
